<svg xmlns="http://www.w3.org/2000/svg" viewBox="0 0 128 128" fill="none">
  <path d="M64 4c-7 0-14 7-14 14v46h28V18c0-7-7-14-14-14z" fill="#B4B4B4"/>
  <circle cx="64" cy="40" r="10" fill="#4C4C4C"/>
  <circle cx="64" cy="40" r="6" fill="#B4B4B4"/>
  <path d="M50 64l-12 20c-2 4-6 6-10 4l-4-2c-2-2 0-6 4-8l16-10z" fill="#FF6A00"/>
  <path d="M78 64l12 20c2 4 6 6 10 4l4-2c2-2 0-6-4-8l-16-10z" fill="#FF6A00"/>
  <path d="M58 100c0 6 6 12 6 18 0-6 6-12 6-18h-12z" fill="#FF4500"/>
  <path d="M58 110c0 4 4 6 4 10 0-4 4-6 4-10h-8z" fill="#FFD700"/>
  <path d="M60 115c0 2 2 4 2 6 0-2 2-4 2-6h-4z" fill="#FFFF00"/>
</svg>
