<svg width="60" height="20" xmlns="http://www.w3.org/2000/svg" xmlns:svg="http://www.w3.org/2000/svg">
 <g class="layer">
  <title>Layer 1</title>
  <path d="m9.48,13.47l-2.64,0l-0.86,0l-1.63,0c-0.26,0 -0.47,0.21 -0.47,0.46l0.06,7.52c0,0.3 -0.25,0.55 -0.56,0.55l-2.78,0c-0.33,0 -0.59,-0.26 -0.6,-0.58l0,-20.76c-0.01,-0.33 0.26,-0.6 0.6,-0.6l2.82,0c0.25,0 0.46,0.2 0.46,0.45l0.07,8.77c0,0.31 0.13,0.45 0.47,0.45l2.44,0l2.58,0c0.3,0 0.44,-0.13 0.44,-0.45c0,0 0.01,-6.74 0.01,-8.73c-0.01,-0.3 0.25,-0.55 0.56,-0.55l2.8,0c0.43,0 0.6,0.19 0.6,0.6l0,20.82c0,0.32 -0.1,0.58 -0.6,0.58l-2.79,0c-0.41,0 -0.51,-0.23 -0.51,-0.51l0.01,-7.56c-0.01,-0.25 -0.22,-0.46 -0.48,-0.46z" fill="#bfbfbf" id="svg_1" transform="matrix(1, 0, 0, 1, 0, 0)"/>
  <path d="m30.38,21c0.13,0.48 -0.23,0.95 -0.73,0.98l-2.47,0c-0.4,0.02 -0.75,-0.25 -0.84,-0.63l-0.77,-3.57c-0.04,-0.22 -0.25,-0.37 -0.48,-0.37l-3.48,0.1c-0.24,0.01 -0.43,0.18 -0.46,0.41l-0.43,3.39c-0.06,0.46 -0.51,0.77 -0.97,0.67l-2.55,0.01c-0.44,-0.09 -0.71,-0.51 -0.63,-0.93l4.04,-20.42c0.08,-0.37 0.41,-0.64 0.79,-0.64l3.33,0c0.37,0 0.69,0.24 0.79,0.6l4.86,20.4zm-5.43,-7.23l-1.44,-7.45c-0.1,-0.29 -0.53,-0.27 -0.59,0.03l-1.21,7.62c-0.03,0.15 0.09,0.3 0.26,0.3l2.73,-0.17c0.18,0 0.3,-0.17 0.25,-0.33z" fill="#bfbfbf" id="svg_2" transform="matrix(1, 0, 0, 1, 0, 0)"/>
  <path d="m33.11,0.62c0.02,-0.31 0.27,-0.55 0.58,-0.58l2.17,-0.02c0.26,-0.01 0.5,0.13 0.6,0.37l3.31,9.41c0.1,0.22 0.44,0.16 0.45,-0.09l-0.23,-9.16c-0.01,-0.33 0.28,-0.58 0.6,-0.54l3.34,-0.01c0.27,0.03 0.47,0.27 0.47,0.55l0.01,20.76c-0.02,0.32 -0.28,0.57 -0.6,0.58l-2.24,-0.03c-0.26,0.01 -0.49,-0.14 -0.59,-0.38l-3.72,-9.82c-0.08,-0.19 -0.36,-0.15 -0.39,0.05l-0.01,5.49c-0.04,0.31 -0.3,0.54 -0.61,0.54l-2.44,0c-0.35,0 -0.72,-0.25 -0.7,-0.6l0,-16.52z" fill="#bfbfbf" id="svg_3" transform="matrix(1, 0, 0, 1, 0, 0)"/>
  <path d="m38.7,21.2c0,0.89 -1.01,0.75 -1.01,0.75c0,0 -2.71,0 -3.68,0c-0.94,0 -0.88,-0.44 -0.88,-1.38c0,-1.14 0.55,-1.14 1.31,-1.14c0.56,0 3.12,0 3.81,0c0.49,0 0.45,0.57 0.45,1.77z" fill="#bfbfbf" id="svg_4"/>
  <path d="m59.34,10.55c0,6.62 -0.43,11.45 -6.12,11.45c-5.03,0 -6.07,-5.39 -6.07,-10.27c0,-2.81 -0.04,-8.69 -0.04,-10.95c0,-0.47 0.46,-0.79 0.91,-0.76l2.12,-0.02c0.47,0.03 0.8,0.44 0.8,0.92c0,2.09 -0.07,7.37 -0.07,10.91c0,4.48 0.96,6.39 2.36,6.39c1.84,0 2.47,-2.13 2.47,-4.83c0,-1.76 -0.14,-9.88 -0.14,-12.49c0,-0.44 0.38,-0.77 0.8,-0.8l2.05,-0.09c0.5,-0.03 0.91,0.36 0.91,0.87c-0.01,1.93 0.02,6.28 0.02,9.67z" fill="#bfbfbf" id="svg_5"/>
 </g>

</svg>