<svg width="684" height="257" xmlns="http://www.w3.org/2000/svg" xmlns:svg="http://www.w3.org/2000/svg" enable-background="new 0 0 684 257" xml:space="preserve">
 <g class="layer">
  <title>Layer 1</title>
  <g id="svg_1">
   <g id="svg_2">
    <path d="m602.43,248.04c-4.61,-1.71 -8.55,-3.93 -11.84,-6.65c-2.06,-1.71 -5.11,-1.53 -7.04,0.32l-9.41,9.02l36.52,-0.28c-2.81,-0.68 -5.58,-1.42 -8.23,-2.41z" fill="#bfbfbf" id="svg_3"/>
    <path d="m12.8,226.11l6.84,0.69c3.58,0.36 6.66,-2.49 6.59,-6.08l-0.59,-30.35c-0.07,-3.52 2.9,-6.34 6.41,-6.09l16.39,1.14c3.51,0.24 6.47,-2.57 6.41,-6.09l-0.24,-13.12c-0.06,-3.15 -2.54,-5.71 -5.68,-5.87l-18.31,-0.94c-3.14,-0.16 -5.62,-2.72 -5.68,-5.87l-0.15,-7.92c-0.07,-3.44 2.77,-6.23 6.21,-6.1l21.95,0.82c3.44,0.13 6.28,-2.66 6.21,-6.1l-0.24,-13.31c-0.06,-3.22 -2.65,-5.82 -5.88,-5.88l-41.51,-0.8c-3.4,-0.07 -6.17,2.71 -6.11,6.11l1.99,99.93c0.06,3.02 2.38,5.53 5.39,5.83z" fill="#bfbfbf" id="svg_4"/>
    <path d="m137.62,195.87l-1.06,-65.96c-0.06,-3.5 -3.08,-6.2 -6.56,-5.87l-10.01,0.96c-3.11,0.3 -5.47,2.94 -5.42,6.06l1.04,62.54c0.09,5.62 -0.91,9.86 -3,12.72c-2.09,2.85 -4.92,4.12 -8.5,3.82c-3.65,-0.3 -6.48,-2.06 -8.5,-5.27c-2.02,-3.2 -3.07,-7.5 -3.17,-12.93l-1,-57.72c-0.06,-3.49 -3.08,-6.19 -6.56,-5.86l-8.71,0.83c-3.12,0.3 -5.48,2.94 -5.42,6.07l1,55.85c0.23,12.54 3.42,22.91 9.64,31.17c6.26,8.32 13.97,12.97 23.17,13.9c9.32,0.94 17.21,-2.24 23.63,-9.62c6.48,-7.44 9.64,-17.69 9.43,-30.69z" fill="#bfbfbf" id="svg_5"/>
    <path d="m153.81,144.08l12.15,0.45c3.05,0.11 5.48,2.6 5.53,5.65l1.31,86.95c0.04,2.92 2.27,5.34 5.17,5.63l12.21,1.23c3.42,0.34 6.37,-2.36 6.32,-5.8l-1.24,-86.53c-0.05,-3.29 2.67,-5.94 5.96,-5.82l12.43,0.46c3.28,0.12 6,-2.53 5.96,-5.82l-0.23,-16.68c-0.04,-3.1 -2.53,-5.61 -5.63,-5.66l-18.06,-0.35c-0.22,0 -0.44,0 -0.66,0.03l-41.71,3.99c-2.98,0.29 -5.24,2.81 -5.2,5.81l0.17,10.81c0.04,3.05 2.47,5.53 5.52,5.65z" fill="#bfbfbf" id="svg_6"/>
    <path d="m303.27,242.9c8.17,-8.24 12.21,-19.66 12.05,-34.19l-0.9,-83.04c-0.03,-3.1 -2.53,-5.62 -5.63,-5.68l-16.04,-0.31c-3.24,-0.06 -5.89,2.57 -5.85,5.81l0.94,80.49c0.07,6.27 -1.21,11 -3.84,14.17c-2.62,3.16 -6.17,4.54 -10.63,4.17c-4.54,-0.38 -8.05,-2.37 -10.54,-5.97c-2.49,-3.59 -3.76,-8.39 -3.84,-14.43l-0.99,-79.36c-0.04,-3.1 -2.53,-5.61 -5.63,-5.67l-14.23,-0.28c-3.25,-0.06 -5.9,2.57 -5.85,5.82l1.04,78.35c0.18,13.94 4.07,25.52 11.71,34.78c7.71,9.34 17.25,14.62 28.69,15.78c0.62,0.06 1.21,0.06 1.82,0.1l5.52,-0.04c0.21,0 0.41,-0.01 0.62,-0.03c8.2,-0.79 15.42,-4.25 21.58,-10.47z" fill="#bfbfbf" id="svg_7"/>
    <path d="m371.95,209.83l0.34,0.02c2.17,0.15 4.07,1.53 4.89,3.54l14.47,35.56c0.88,2.17 2.99,3.57 5.33,3.56l21.46,-0.16c4.12,-0.03 6.85,-4.29 5.16,-8.05l-15.22,-33.89c-1.11,-2.47 -0.36,-5.42 1.86,-6.95c4.02,-2.78 7.56,-6.52 10.63,-11.23c4.05,-6.22 6.05,-13.91 5.98,-23.05c-0.1,-12.83 -4.08,-23.98 -11.92,-33.39c-7.77,-9.33 -18.35,-14.11 -31.63,-14.37l-41.7,-0.81c-3.22,-0.06 -5.85,2.55 -5.82,5.77l1.23,120.89c0.03,3.15 2.6,5.67 5.75,5.65l17.68,-0.13c3.16,-0.02 5.69,-2.61 5.66,-5.76l-0.29,-31.45c0,-3.34 2.82,-5.99 6.14,-5.75zm-6.64,-51.71c-0.03,-3.26 2.67,-5.88 5.92,-5.76l10.98,0.41c4.05,0.15 7.28,1.71 9.69,4.68c2.42,2.98 3.65,6.41 3.68,10.3s-1.14,7.21 -3.51,9.97c-2.36,2.75 -5.57,4.01 -9.61,3.79l-11.6,-0.62c-3.01,-0.16 -5.37,-2.63 -5.4,-5.65l-0.15,-17.12z" fill="#bfbfbf" id="svg_8"/>
    <path d="m543.1,245.76l-54.16,-4.5c-2.82,-0.23 -5,-2.59 -5.02,-5.42l-0.09,-15.61c-0.02,-3.18 2.67,-5.71 5.84,-5.49l40.77,2.8c3.17,0.22 5.86,-2.3 5.84,-5.48l-0.1,-22.76c-0.01,-2.9 -2.29,-5.29 -5.19,-5.44l-42.23,-2.15c-2.9,-0.15 -5.17,-2.53 -5.19,-5.43l-0.08,-14.24c-0.02,-3.11 2.56,-5.61 5.67,-5.5l50.47,1.88c3.11,0.12 5.69,-2.38 5.67,-5.49l-0.09,-23.06c-0.01,-2.97 -2.39,-5.39 -5.36,-5.45l-83.81,-1.62c-3.34,-0.06 -6.07,2.64 -6.05,5.97l0.8,117.36c0.02,3.28 2.7,5.92 5.98,5.89l86.11,-0.65c1.56,-0.01 2.81,-1.28 2.81,-2.84l0,0c0,-1.43 -1.13,-2.65 -2.59,-2.77z" fill="#bfbfbf" id="svg_9"/>
    <path d="m678.62,242.38c0,-8.06 -0.99,-15.14 -2.95,-21.25c-1.97,-6.09 -5.84,-12.13 -11.61,-18.1c-5.74,-5.94 -15.83,-10.27 -30.12,-13l-19.29,-3.7c-2.81,-0.44 -5.02,-1.12 -6.64,-2.02c-1.62,-0.9 -2.98,-1.95 -4.08,-3.12c-1.1,-1.18 -1.91,-2.33 -2.42,-3.48c-0.52,-1.15 -0.77,-2.54 -0.78,-4.19c-0.01,-4.04 1.55,-7.46 4.69,-10.27c3.16,-2.81 7.91,-4.1 14.3,-3.87l2.91,0.11c6.59,0.24 12.1,1.28 16.5,3.12c2.78,1.17 5.29,2.59 7.53,4.28c2.29,1.73 5.48,1.57 7.55,-0.42l17.36,-16.66c2.51,-2.41 2.33,-6.44 -0.32,-8.7c-5.96,-5.07 -12.44,-8.86 -19.43,-11.37c-8.82,-3.17 -19.18,-4.86 -31.04,-5.08c-17.75,-0.33 -31.57,4.11 -41.61,13.24c-9.93,9.04 -14.83,20.8 -14.78,35.35c0.05,13.66 3.5,24.31 10.39,32c6.93,7.74 17.27,13.13 31.1,16.14l19.1,4.02c2.7,0.49 4.87,1.17 6.53,2.04c1.66,0.88 3.28,2.2 4.87,3.99c1.59,1.78 2.39,4.73 2.39,8.83c0.01,4.86 -1.91,8.35 -5.75,10.46l44.98,-0.34c0.37,-2.57 0.63,-5.21 0.62,-8.01z" fill="#bfbfbf" id="svg_10"/>
   </g>
   <g id="svg_11">
    <path d="m95.43,40.86l10.29,-0.4c3.07,-0.12 5.49,-2.67 5.44,-5.75l-0.25,-15.11c-0.05,-3.21 -2.77,-5.73 -5.98,-5.55l-50.96,2.9c-3.03,0.17 -5.39,2.71 -5.33,5.75l0.26,14.19c0.06,3.17 2.71,5.67 5.87,5.55l8.62,-0.33c3.17,-0.12 5.82,2.38 5.87,5.55l1.28,71.19c0.06,3.32 2.95,5.87 6.25,5.52l9.38,-0.99c2.91,-0.31 5.11,-2.79 5.06,-5.72l-1.23,-71.05c-0.06,-3.08 2.36,-5.63 5.43,-5.75z" fill="#bfbfbf" id="svg_12"/>
    <path d="m143.79,86.44l13.2,-0.1c3.11,-0.02 5.65,2.47 5.7,5.57l0.25,16.72c0.05,3.33 2.94,5.89 6.25,5.54l12.45,-1.32c2.91,-0.31 5.1,-2.78 5.06,-5.7l-1.31,-92.29c-0.05,-3.22 -2.76,-5.75 -5.98,-5.57l-12.53,0.71c-3.03,0.17 -5.38,2.7 -5.33,5.73l0.56,37.44c0.05,3.1 -2.41,5.66 -5.51,5.74l-13.22,0.33c-3.14,0.08 -5.75,-2.42 -5.8,-5.57l-0.57,-36.08c-0.05,-3.21 -2.77,-5.74 -5.98,-5.56l-11.08,0.63c-3.03,0.17 -5.38,2.7 -5.33,5.74l1.55,95.36c0.05,3.32 2.95,5.88 6.25,5.53l11.01,-1.17c2.91,-0.31 5.1,-2.79 5.06,-5.71l-0.31,-20.25c-0.05,-3.12 2.47,-5.7 5.61,-5.72z" fill="#bfbfbf" id="svg_13"/>
    <path d="m223.83,85.95l28.21,-0.2c3.13,-0.02 5.65,-2.59 5.62,-5.72l-0.21,-18.07c-0.04,-3.15 -2.65,-5.67 -5.8,-5.59l-28.15,0.71c-3.15,0.08 -5.76,-2.43 -5.8,-5.58l-0.14,-10.74c-0.04,-3.07 2.37,-5.61 5.44,-5.73l35.56,-1.38c3.06,-0.12 5.47,-2.65 5.44,-5.72l-0.21,-18.28c-0.04,-3.22 -2.76,-5.76 -5.98,-5.58l-60.52,3.44c-3.02,0.17 -5.37,2.69 -5.33,5.72l1.24,92.08c0.04,3.33 2.94,5.9 6.25,5.55l13.86,-1.47c2.9,-0.31 5.09,-2.77 5.06,-5.69l-0.14,-12.02c-0.05,-3.14 2.46,-5.71 5.6,-5.73z" fill="#bfbfbf" id="svg_14"/>
   </g>
  </g>
 </g>

</svg>